<?xml version="1.0" encoding="iso-8859-1"?>
<!-- Generator: Adobe Illustrator 19.0.0, SVG Export Plug-In . SVG Version: 6.00 Build 0)  -->
<svg version="1.1" id="Layer_1" xmlns="http://www.w3.org/2000/svg" xmlns:xlink="http://www.w3.org/1999/xlink" x="0px" y="0px"
	 viewBox="0 0 512.001 512.001" style="enable-background:new 0 0 512.001 512.001;" xml:space="preserve">
<path style="fill:#FEE187;" d="M216.115,293.556l-29.33,193.923c-0.894,5.908,4.191,10.993,10.099,10.099l193.923-29.33
	c7.197-1.088,10.094-9.9,4.947-15.047L231.162,288.608C226.016,283.462,217.204,286.359,216.115,293.556z"/>
<path style="fill:#FFC61B;" d="M494.007,267.009l-76.652-76.652c-10.663-10.661-28.01-10.661-38.673,0l-55.915,55.915
	c-5.165,5.165-8.012,12.032-8.012,19.337s2.845,14.172,8.01,19.335l46.924,46.924c5.593,5.592,14.657,5.592,20.252,0
	c5.592-5.592,5.592-14.659,0-20.252l-46.009-46.007l54.086-54.088l74.823,74.823L360.996,398.191L241.288,278.483
	c-4.386-4.386-10.194-6.802-16.352-6.802c-11.584,0-21.248,8.298-22.978,19.733l-29.33,193.924
	c-1.011,6.687,0.936,13.461,5.342,18.585c4.415,5.132,10.815,8.077,17.561,8.077c1.163,0,2.338-0.089,3.495-0.263l193.924-29.33
	c8.7-1.316,15.814-7.329,18.563-15.69c2.748-8.36,0.59-17.419-5.633-23.641l-24.635-24.635l112.76-112.76
	C504.668,295.019,504.668,277.671,494.007,267.009z M202.048,482.316l26.612-175.958l149.344,149.344L202.048,482.316z"/>
<path style="fill:#FEE187;" d="M295.887,218.446l29.33-193.924c0.893-5.908-4.191-10.993-10.099-10.099l-193.924,29.33
	c-7.197,1.088-10.094,9.9-4.947,15.047l164.593,164.593C285.987,228.538,294.799,225.641,295.887,218.446z"/>
<path style="fill:#FFC61B;" d="M334.032,8.077C329.617,2.944,323.217,0,316.473,0c-1.164,0-2.34,0.089-3.494,0.263l-193.926,29.33
	c-8.702,1.316-15.814,7.329-18.563,15.688s-0.591,17.419,5.632,23.642l24.635,24.635l-112.76,112.76
	c-10.662,10.662-10.662,28.011,0,38.673l76.652,76.652c5.331,5.331,12.335,7.996,19.337,7.996s14.006-2.666,19.337-7.997
	l55.915-55.915c5.165-5.165,8.01-12.032,8.01-19.337s-2.845-14.172-8.009-19.335l-46.922-46.924c-5.593-5.592-14.659-5.592-20.25,0
	s-5.593,14.659,0,20.25l46.007,46.009l-54.086,54.086l-74.825-74.822l111.847-111.847l119.708,119.708
	c4.386,4.386,10.192,6.802,16.351,6.803c0.001,0,0.001,0,0.001,0c11.584,0,21.248-8.298,22.979-19.733l29.328-193.924
	C340.387,19.975,338.438,13.201,334.032,8.077z M283.342,205.643L133.996,56.297l175.958-26.612L283.342,205.643z"/>
<g>
</g>
<g>
</g>
<g>
</g>
<g>
</g>
<g>
</g>
<g>
</g>
<g>
</g>
<g>
</g>
<g>
</g>
<g>
</g>
<g>
</g>
<g>
</g>
<g>
</g>
<g>
</g>
<g>
</g>
</svg>
